<?xml version="1.0" encoding="UTF-8" standalone="no"?>
<!-- Generator: Adobe Illustrator 18.1.0, SVG Export Plug-In . SVG Version: 6.00 Build 0)  -->

<svg
   xmlns:dc="http://purl.org/dc/elements/1.1/"
   xmlns:cc="http://creativecommons.org/ns#"
   xmlns:rdf="http://www.w3.org/1999/02/22-rdf-syntax-ns#"
   xmlns:svg="http://www.w3.org/2000/svg"
   xmlns="http://www.w3.org/2000/svg"
   xmlns:sodipodi="http://sodipodi.sourceforge.net/DTD/sodipodi-0.dtd"
   xmlns:inkscape="http://www.inkscape.org/namespaces/inkscape"
   version="1.1"
   id="Layer_1"
   x="0px"
   y="0px"
   viewBox="0 0 40 32"
   enable-background="new 0 0 40 32"
   xml:space="preserve"
   inkscape:version="0.91 r13725"
   sodipodi:docname="twitter.svg"><metadata
     id="metadata4330"><rdf:RDF><cc:Work
         rdf:about=""><dc:format>image/svg+xml</dc:format><dc:type
           rdf:resource="http://purl.org/dc/dcmitype/StillImage" /></cc:Work></rdf:RDF></metadata><defs
     id="defs4328" /><sodipodi:namedview
     pagecolor="#ffffff"
     bordercolor="#666666"
     borderopacity="1"
     objecttolerance="10"
     gridtolerance="10"
     guidetolerance="10"
     inkscape:pageopacity="0"
     inkscape:pageshadow="2"
     inkscape:window-width="1916"
     inkscape:window-height="1063"
     id="namedview4326"
     showgrid="false"
     inkscape:zoom="4.9386989"
     inkscape:cx="70.081114"
     inkscape:cy="8.3712113"
     inkscape:window-x="1920"
     inkscape:window-y="13"
     inkscape:window-maximized="0"
     inkscape:current-layer="Layer_1" /><path
     fill="#FFFFFF"
     d="M40,3.8c-1.5,0.6-3.1,1.1-4.7,1.3c1.7-1,3-2.6,3.6-4.5c-1.6,0.9-3.3,1.6-5.2,2C32.2,1,30,0,27.7,0  c-4.5,0-8.2,3.6-8.2,8.1c0,0.6,0.1,1.2,0.2,1.8C12.9,9.6,6.8,6.4,2.8,1.5C2.1,2.7,1.7,4.1,1.7,5.5c0,2.8,1.5,5.3,3.7,6.7  c-1.4,0-2.6-0.4-3.7-1c0,0,0,0.1,0,0.1c0,3.9,2.8,7.2,6.6,7.9c-0.7,0.2-1.4,0.3-2.2,0.3c-0.5,0-1-0.1-1.5-0.1c1,3.2,4.1,5.5,7.7,5.6  C9.3,27.2,5.8,28.5,2,28.5c-0.7,0-1.3,0-2-0.1C3.6,30.7,7.9,32,12.6,32c15.1,0,23.4-12.3,23.4-23c0-0.3,0-0.7,0-1  C37.5,6.8,38.9,5.4,40,3.8z"
     id="path4324"
     style="fill:#000000" /></svg>