<?xml version="1.0" encoding="utf-8"?>
<!-- Generator: Adobe Illustrator 19.1.0, SVG Export Plug-In . SVG Version: 6.00 Build 0)  -->
<!DOCTYPE svg PUBLIC "-//W3C//DTD SVG 1.1//EN" "http://www.w3.org/Graphics/SVG/1.1/DTD/svg11.dtd">
<svg version="1.1" xmlns="http://www.w3.org/2000/svg" xmlns:xlink="http://www.w3.org/1999/xlink" x="0px" y="0px"
	 viewBox="0 0 270 420" enable-background="new 0 0 270 420" xml:space="preserve">
<g id="Layer_9">
</g>
<g id="old_x5F_version">
</g>
<g id="build">
</g>
<g id="build_copy">
</g>
<g id="Layer_8">
</g>
<g id="Layer_7">
	<g>
		<path fill="#FFE000" d="M190,75c-10.7,0-20.9,2.1-30.2,5.9c-3.1,6.9-7.1,13.3-11.8,19.1c8.6,10.7,14.8,23.4,17.7,37.4
			c5.5-7.5,14.3-12.4,24.3-12.4c16.6,0,30,13.4,30,30s-13.4,30-30,30c-10.7,0-20.9,2.1-30.2,5.9c-4.6,10.2-11.1,19.4-19.1,27.1
			c-1.8,1.8-3.7,3.5-5.7,5.1c-5.8,4.7-12.2,8.7-19.1,11.8c-3.8,9.3-5.9,19.5-5.9,30.2c0,18.6,6.4,35.7,17,49.3
			c12-12.5,27.7-21.4,45.4-25C164.9,283.8,160,275,160,265s4.9-18.8,12.4-24.3c4.9-3.6,11-5.7,17.6-5.7c22.9,0,43.5-9.6,58.1-25
			c13.6-14.3,21.9-33.7,21.9-55C270,110.8,234.2,75,190,75z"/>
	</g>
</g>
<g id="Layer_6">
	<g>
		<path fill="#FFFFFF" d="M143,105.9c-12,12.5-27.7,21.4-45.4,25c7.5,5.5,12.4,14.3,12.4,24.3c0,16.6-13.4,30-30,30
			c-22.9,0-43.5,9.6-58.1,25C8.3,224.5,0,243.8,0,265.1c0,44.2,35.8,80,80,80c10.7,0,20.9-2.1,30.2-5.9c3.1-6.9,7.1-13.3,11.8-19.1
			c-8.6-10.7-14.8-23.4-17.7-37.4c-5.5,7.5-14.3,12.4-24.3,12.4c-16.6,0-30-13.4-30-30s13.4-30,30-30c10.7,0,20.9-2.1,30.2-5.9
			c10.6-4.3,20.1-10.9,27.9-19.1c6.8-7.2,12.2-15.5,16-24.8c3.8-9.3,5.9-19.5,5.9-30.2C160,136.5,153.6,119.4,143,105.9z"/>
	</g>
</g>
<g id="Layer_4">
</g>
<g id="Layer_5">
	<path fill="#FFFFFF" d="M-558-6c1.4,0,2.7,0.1,4,0.2V-16l-4,2.4l-4-2.4v10.2C-560.7-5.9-559.4-6-558-6z"/>
	<polygon points="-608,50 -608,50 -608,50 	"/>
	<g>
		<g>
			<path fill="#FFE000" d="M135,15c-13.8,0-25,16.1-25,29.9c0,16.6-13.4,30-30,30c-22.9,0-43.5,9.6-58.1,25
				c-1.7,1.8-3.4,3.7-4.9,5.7C6.4,119.2,0,136.3,0,154.9s6.4,35.7,17,49.3c12-12.5,27.7-21.4,45.4-25c-7.5-5.5-12.4-14.3-12.4-24.3
				s4.9-18.8,12.4-24.3c4.9-3.6,11-5.7,17.6-5.7c22.9,0,43.5-9.6,58.1-25c13.6-14.3,21.9-33.7,21.9-55C160,31.1,148.8,15,135,15z
				 M116.7,45c-2.3-2.3-2.3-6,0-8.3c2.3-2.3,6-2.3,8.3,0L116.7,45z M145,36.7c2.3-2.3,6-2.3,8.3,0c2.3,2.3,2.3,6,0,8.3L145,36.7z"/>
		</g>
	</g>
	<g>
		<g>
			<path fill="#FFFFFF" d="M253,215.7c-12,12.5-27.7,21.4-45.4,25c7.5,5.5,12.4,14.3,12.4,24.3s-4.9,18.8-12.4,24.3
				c-4.9,3.6-11,5.7-17.6,5.7c-22.9,0-43.5,9.6-58.1,25c-13.6,14.3-21.9,33.7-21.9,55c0,13.8,11.2,30,25,30s25-16.2,25-30
				c0-16.6,13.4-30,30-30c22.9,0,43.5-9.6,58.1-25c1.7-1.8,3.4-3.7,4.9-5.7c10.6-13.6,17-30.7,17-49.3S263.6,229.3,253,215.7z
				 M116.7,383.3c-2.3-2.3-2.3-6,0-8.3l8.3,8.3C122.7,385.6,119,385.6,116.7,383.3z M153.3,383.3c-2.3,2.3-6,2.3-8.3,0l8.3-8.3
				C155.6,377.3,155.6,381,153.3,383.3z"/>
		</g>
	</g>
	<path fill="#FFE000" d="M135,410c-1.4,0-2.7-0.1-4-0.3V420l4-2.4l4,2.4v-10.3C137.7,409.9,136.4,410,135,410z"/>
	<path fill="#FFFFFF" d="M135,10c1.4,0,3,0.1,4,0.3V0l-4,2.4L131,0v10.3C132.3,10.1,133.6,10,135,10z"/>
</g>
</svg>
