<?xml version="1.0" encoding="UTF-8" standalone="no"?>
<!-- Generator: Adobe Illustrator 18.1.0, SVG Export Plug-In . SVG Version: 6.00 Build 0)  -->

<svg
   xmlns:dc="http://purl.org/dc/elements/1.1/"
   xmlns:cc="http://creativecommons.org/ns#"
   xmlns:rdf="http://www.w3.org/1999/02/22-rdf-syntax-ns#"
   xmlns:svg="http://www.w3.org/2000/svg"
   xmlns="http://www.w3.org/2000/svg"
   xmlns:sodipodi="http://sodipodi.sourceforge.net/DTD/sodipodi-0.dtd"
   xmlns:inkscape="http://www.inkscape.org/namespaces/inkscape"
   version="1.1"
   id="Layer_1"
   x="0px"
   y="0px"
   viewBox="0 0 32 32"
   enable-background="new 0 0 32 32"
   xml:space="preserve"
   inkscape:version="0.91 r13725"
   sodipodi:docname="rss.svg"><metadata
     id="metadata4266"><rdf:RDF><cc:Work
         rdf:about=""><dc:format>image/svg+xml</dc:format><dc:type
           rdf:resource="http://purl.org/dc/dcmitype/StillImage" /></cc:Work></rdf:RDF></metadata><defs
     id="defs4264" /><sodipodi:namedview
     pagecolor="#ffffff"
     bordercolor="#666666"
     borderopacity="1"
     objecttolerance="10"
     gridtolerance="10"
     guidetolerance="10"
     inkscape:pageopacity="0"
     inkscape:pageshadow="2"
     inkscape:window-width="1916"
     inkscape:window-height="1063"
     id="namedview4262"
     showgrid="false"
     inkscape:zoom="6.984375"
     inkscape:cx="60.225805"
     inkscape:cy="5.1225659"
     inkscape:window-x="1920"
     inkscape:window-y="13"
     inkscape:window-maximized="0"
     inkscape:current-layer="Layer_1" /><g
     id="g4254"
     style="fill:#000000"><path
       fill="#FFFFFF"
       d="M4.7,22.7c-2.6,0-4.7,2.1-4.7,4.6C0,29.9,2.1,32,4.7,32c2.6,0,4.7-2.1,4.7-4.6C9.3,24.8,7.2,22.7,4.7,22.7z   "
       id="path4256"
       style="fill:#000000" /><path
       fill="#FFFFFF"
       d="M0,10.7v6.7c4,0,7.8,1.2,10.7,4s4,6.7,4,10.7h6.7C21.3,20.3,11.7,10.7,0,10.7z"
       id="path4258"
       style="fill:#000000" /><path
       fill="#FFFFFF"
       d="M0,0v6.7c14.2,0,25.3,11.1,25.3,25.3H32C32,14.4,17.7,0,0,0z"
       id="path4260"
       style="fill:#000000" /></g></svg>