<svg xmlns="http://www.w3.org/2000/svg" width="604" height="964" viewBox="0 0 604 964" xmlns:xlink="http://www.w3.org/1999/xlink">
  <defs>
    <polygon id="a" points="482.076 .537 .079 .537 .079 883.744 482.076 883.744 482.076 .537"/>
  </defs>
  <g fill="none" fill-rule="evenodd" transform="translate(0 -1)">
    <g transform="translate(61.03 .818)">
      <mask id="b" fill="white">
        <use xlink:href="#a"/>
      </mask>
      <path fill="#FFFFFF" d="M22.2387122,278.043157 C18.9123671,278.043157 16.2141415,273.550873 16.2141415,268.00819 C16.2141415,262.465507 18.9123671,257.97078 22.2387122,257.97078 C25.5650573,257.97078 28.2632829,262.465507 28.2632829,268.00819 C28.2632829,273.550873 25.5650573,278.043157 22.2387122,278.043157 M246.379627,843.516475 C244.612582,843.597087 242.845538,843.597087 241.078493,843.597087 C239.309005,843.597087 237.54196,843.597087 235.774916,843.516475 C138.411499,840.704828 60.326708,760.935635 60.326708,662.940811 C60.326708,652.664009 61.1723476,642.629042 62.8587385,632.831025 C70.4083933,587.666346 94.7510805,548.20313 129.214558,521.066214 C159.980195,496.777588 198.820957,482.284536 241.078493,482.284536 C242.845538,482.284536 244.612582,482.245451 246.379627,482.203924 C248.711245,482.137969 251.0282,482.018272 253.335378,481.864377 C287.268498,480.181297 319.400356,471.548489 348.200981,457.192233 C349.205484,456.752532 350.168438,456.229775 351.17294,455.707019 C353.421461,454.58578 355.633322,453.379043 357.840295,452.17475 C373.184008,443.664081 387.442566,433.587587 400.498654,422.064963 C403.671025,419.297286 406.765185,416.405027 409.776249,413.473683 C423.633983,399.86492 435.844432,384.651245 446.045875,368.111138 C468.900139,331.295903 482.075985,287.8998 482.075985,241.411131 C482.075985,108.367207 374.188511,0.535282431 241.078493,0.535282431 C218.710594,0.535282431 197.085685,3.64494964 176.536155,9.34152776 C74.7832336,37.5483834 0.0785570174,130.721146 0.0785570174,241.411131 L0.0785570174,241.860603 L0.0785570174,241.911902 C0.0785570174,241.965643 0.0834451072,242.016942 0.0834451072,242.070683 C0.088333197,244.164151 0.127437915,245.786161 0.195871173,246.970913 C0.79710622,274.139584 6.12023603,294.3512 15.4613757,318.681353 C16.1066035,320.359547 17.8052147,321.407503 19.5942556,321.243836 C20.8016138,321.131468 22.0138601,321.009329 23.2138861,320.879861 C30.5411327,320.078627 36.5705915,315.327407 39.3592468,308.507147 C39.3592468,308.507147 60.3902532,256.385412 60.3975853,256.368312 C62.5532329,250.854943 64.1394181,247.11748 64.1394181,241.911902 C64.1394181,236.845563 62.9442801,232.072358 60.869286,227.812138 C66.8351996,147.805995 124.939923,82.3319883 201.343211,65.1885127 C214.135342,62.3182385 227.418726,60.7548552 241.078493,60.7548552 C340.890843,60.7548552 421.827834,141.64773 421.827834,241.411131 C421.827834,243.135738 421.786285,244.862788 421.744737,246.548311 C421.50522,255.058979 420.70113,263.369338 419.29336,271.520917 C415.319343,295.406483 406.603878,317.728666 394.190574,337.439511 C383.143491,354.983603 369.168443,370.519725 352.939984,383.285728 C351.373352,384.529106 349.809163,385.7334 348.200981,386.940136 C319.522558,408.055583 284.338088,420.943724 246.21832,421.986794 C244.531929,422.025879 242.803989,422.064963 241.078493,422.064963 C239.350553,422.064963 237.622614,422.106491 235.936223,422.145575 C235.894674,422.106491 235.855569,422.106491 235.774916,422.145575 C234.208283,422.064963 232.64165,422.064963 231.035913,422.064963 C195.16711,422.064963 161.187553,430.255626 130.900949,444.829291 C127.445069,446.514813 124.030739,448.241863 120.657957,450.08861 C101.618847,460.446025 84.2270232,473.412335 68.924858,488.506313 C31.9293502,524.918489 7.18828365,573.69605 1.4056734,628.133547 C0.520929145,636.285125 0.0785570174,644.553957 0.0785570174,652.905845 C0.0785570174,654.54984 0.0785570174,656.196278 0.159210499,657.801189 C2.73034574,783.057509 105.113831,883.744283 231.035913,883.744283 C335.870775,883.744283 424.396525,813.968529 452.554367,718.301682 C412.428038,791.529093 335.347749,841.628201 246.379627,843.516475" mask="url(#b)"/>
    </g>
    <path fill="#3EBAC8" d="M534.951857,506.612002 C537.918928,505.085261 542.384198,507.838281 544.923561,512.765382 C547.465367,517.692482 547.120757,522.924931 544.15613,524.454115 C541.18906,525.983299 536.72379,523.227836 534.184427,518.300736 C531.64262,513.373635 531.987231,508.138744 534.951857,506.612002 M571.676076,529.444728 C571.223928,528.538454 570.766891,527.63218 570.304967,526.730792 C556.906713,501.296499 542.574833,485.35976 522.36747,467.375966 C521.025689,466.181443 519.028905,466.02999 517.508709,466.999777 C516.48221,467.652001 515.458155,468.316439 514.448765,468.983319 C508.282439,473.06033 505.085629,480.054028 505.723524,487.397044 C505.723524,487.397044 510.868239,543.38571 510.868239,543.40281 L510.868239,543.405253 C511.476806,549.294811 511.774979,553.342508 514.160367,557.969146 C516.531091,562.568913 519.869656,566.325918 523.77524,569.181536 C532.424715,589.410251 538.432177,611.028911 541.257493,633.649114 C542.462407,643.5253 543.105191,653.560267 543.105191,663.758901 C543.105191,796.802824 435.217717,904.632306 302.105255,904.632306 C168.995237,904.632306 61.1077629,796.802824 61.1077629,663.758901 C61.1077629,662.031851 61.1077629,660.346328 61.1884164,658.621721 C61.1077629,657.014367 61.1077629,655.367929 61.1077629,653.723934 C61.1077629,645.372047 61.550135,637.103214 62.4348793,628.951636 C68.2174895,574.514139 92.9585561,525.739021 129.954064,489.324402 C145.256229,474.230425 162.648053,461.264114 181.687162,450.906699 C185.059944,449.059953 188.474275,447.332903 191.930155,445.64738 C222.216759,431.073716 256.196315,422.885495 292.065119,422.885495 C293.670856,422.885495 295.237489,422.885495 296.804122,422.963664 C296.884775,422.92458 296.92388,422.92458 296.965429,422.963664 C298.65182,422.92458 300.377315,422.885495 302.105255,422.885495 C303.833195,422.885495 305.561134,422.843968 307.247525,422.804883 C345.367294,421.761813 380.551764,408.873672 409.230187,387.758225 C410.838369,386.553932 412.402558,385.347195 413.96919,384.103817 C430.197649,371.337815 444.172697,355.801692 455.21978,338.2576 C467.633084,318.546756 476.346104,296.224573 480.322566,272.339006 C481.730335,264.187428 482.534426,255.877068 482.773943,247.368843 C480.205251,155.434573 404.769805,81.645321 312.147836,81.645321 C232.376654,81.645321 165.380495,136.324654 146.661555,210.231159 C178.192178,157.281319 235.991396,121.792517 302.105255,121.792517 C368.661486,121.792517 422.604001,175.707258 422.604001,242.22922 C422.604001,270.0892 413.125995,295.782428 397.181046,316.177253 C375.169977,344.479377 340.745605,362.665923 302.105255,362.665923 C300.018041,362.665923 297.969931,362.705007 295.880273,362.746534 C262.140233,363.428072 229.766414,369.652292 199.641116,380.53002 C196.468746,381.695229 193.33548,382.857996 190.24132,384.103817 C176.948159,389.443748 164.094927,395.707053 151.803825,402.771591 C145.537294,406.384472 139.392965,410.23919 133.407499,414.294215 C116.65846,425.614088 101.114334,438.580398 87.0146389,452.992839 C33.7540123,507.271555 0.857167865,581.700817 0.857167865,663.758901 C0.857167865,830.04182 135.736674,964.851879 302.105255,964.851879 C468.47628,964.851879 603.353342,830.04182 603.353342,663.758901 C603.353342,615.482111 591.89566,569.889944 571.676076,529.444728"/>
  </g>
</svg>
